<?xml version="1.0" encoding="UTF-8" standalone="no"?>
<svg
   xmlns:dc="http://purl.org/dc/elements/1.1/"
   xmlns:cc="http://creativecommons.org/ns#"
   xmlns:rdf="http://www.w3.org/1999/02/22-rdf-syntax-ns#"
   xmlns:svg="http://www.w3.org/2000/svg"
   xmlns="http://www.w3.org/2000/svg"
   xmlns:sodipodi="http://sodipodi.sourceforge.net/DTD/sodipodi-0.dtd"
   xmlns:inkscape="http://www.inkscape.org/namespaces/inkscape"
   viewBox="0 0 60 60"
   version="1.1"
   id="svg4"
   sodipodi:docname="codepen.svg"
   width="60"
   height="60"
   inkscape:version="0.92.1 r15371">
  <metadata
     id="metadata10">
    <rdf:RDF>
      <cc:Work
         rdf:about="">
        <dc:format>image/svg+xml</dc:format>
        <dc:type
           rdf:resource="http://purl.org/dc/dcmitype/StillImage" />
        <dc:title />
      </cc:Work>
    </rdf:RDF>
  </metadata>
  <defs
     id="defs8" />
  <sodipodi:namedview
     pagecolor="#ffffff"
     bordercolor="#666666"
     borderopacity="1"
     objecttolerance="10"
     gridtolerance="10"
     guidetolerance="10"
     inkscape:pageopacity="0"
     inkscape:pageshadow="2"
     inkscape:window-width="1280"
     inkscape:window-height="657"
     id="namedview6"
     showgrid="false"
     inkscape:zoom="3.6875"
     inkscape:cx="-35.741424"
     inkscape:cy="32.033067"
     inkscape:window-x="-8"
     inkscape:window-y="-8"
     inkscape:window-maximized="1"
     inkscape:current-layer="svg4" />
  <path
     d="m 55.88003,21.817401 c -0.09083,-0.635836 -0.439031,-1.211118 -0.968893,-1.559314 L 31.233823,4.4681665 c -0.741808,-0.4995854 -1.72584,-0.4995854 -2.467647,0 L 5.0737256,20.258087 c -0.6055611,0.408752 -0.9840329,1.120282 -0.9840329,1.846952 v 15.789925 c 0,0.726665 0.3784718,1.453335 0.9840329,1.846948 L 28.751037,55.531837 c 0.741807,0.499581 1.725839,0.499581 2.467648,0 L 54.911137,39.757051 c 0.605558,-0.393612 0.99917,-1.120283 0.99917,-1.846952 V 22.120178 c -0.01514,-0.105973 -0.01514,-0.196804 -0.03027,-0.302777 0,-0.03029 0.01514,0.105973 0,0 z M 32.217856,10.493467 49.657921,22.120178 41.861365,27.327976 32.202717,20.863648 V 10.493467 Z m -4.450851,0 v 10.385321 l -9.658649,6.464328 -7.796558,-5.207797 z M 8.5405457,26.283388 14.111675,30.007571 8.5405457,33.731749 Z M 27.767005,49.521675 10.326937,37.894964 l 7.79656,-5.207802 9.658646,6.449194 v 10.385319 z m 2.225424,-14.245752 -7.872252,-5.268352 7.872252,-5.268351 7.872253,5.268351 z m 2.225427,14.245752 V 39.136356 l 9.658647,-6.449194 7.796558,5.207802 z m 19.226461,-15.789926 -5.571131,-3.724178 5.571131,-3.724183 z"
     id="path2"
     inkscape:connector-curvature="0"
     style="fill:#ffffff;stroke-width:0.15138945" />
</svg>
