<?xml version="1.0" encoding="UTF-8" standalone="no"?>
<svg
   xmlns:dc="http://purl.org/dc/elements/1.1/"
   xmlns:cc="http://creativecommons.org/ns#"
   xmlns:rdf="http://www.w3.org/1999/02/22-rdf-syntax-ns#"
   xmlns:svg="http://www.w3.org/2000/svg"
   xmlns="http://www.w3.org/2000/svg"
   xmlns:sodipodi="http://sodipodi.sourceforge.net/DTD/sodipodi-0.dtd"
   xmlns:inkscape="http://www.inkscape.org/namespaces/inkscape"
   viewBox="0 0 60 60"
   version="1.1"
   id="svg4"
   sodipodi:docname="github - Copy.svg"
   width="60"
   height="60"
   inkscape:version="0.92.1 r15371">
  <metadata
     id="metadata10">
    <rdf:RDF>
      <cc:Work
         rdf:about="">
        <dc:format>image/svg+xml</dc:format>
        <dc:type
           rdf:resource="http://purl.org/dc/dcmitype/StillImage" />
        <dc:title />
      </cc:Work>
    </rdf:RDF>
  </metadata>
  <defs
     id="defs8" />
  <sodipodi:namedview
     pagecolor="#ffffff"
     bordercolor="#666666"
     borderopacity="1"
     objecttolerance="10"
     gridtolerance="10"
     guidetolerance="10"
     inkscape:pageopacity="0"
     inkscape:pageshadow="2"
     inkscape:window-width="1280"
     inkscape:window-height="657"
     id="namedview6"
     showgrid="false"
     inkscape:zoom="5.2149125"
     inkscape:cx="55.097122"
     inkscape:cy="27.319236"
     inkscape:window-x="-8"
     inkscape:window-y="-8"
     inkscape:window-maximized="1"
     inkscape:current-layer="svg4" />
  <path
     style="opacity:1;fill:#ffffff;fill-opacity:1;stroke:none;stroke-width:639.44403076;stroke-linejoin:bevel;stroke-miterlimit:4;stroke-dasharray:none;stroke-dashoffset:0;stroke-opacity:1"
     d="m 24.289897,50.261274 a 27.54431,26.863235 0 0 0 7.058594,0.929688 27.54431,26.863235 0 0 0 7.074218,-0.914063 c -0.05468,-0.167767 -0.185546,-0.311242 -0.185546,-0.480468 V 42.23979 c 0,-1.281648 -0.226127,-2.341094 -0.576172,-3.1875 -0.350046,-0.846406 -0.823952,-1.478519 -1.320313,-1.908203 1.533533,-0.170393 3.085878,-0.444599 4.552735,-0.923828 1.466856,-0.479229 2.848066,-1.16363 4.037109,-2.158204 0.594521,-0.497286 1.141473,-1.071485 1.626953,-1.736328 0.48548,-0.664843 0.90972,-1.421083 1.259766,-2.279296 0.350045,-0.858214 0.626234,-1.819088 0.814453,-2.896485 0.188219,-1.077396 0.289062,-2.271356 0.289062,-3.59375 0,-1.503898 -0.266805,-2.869921 -0.753906,-4.101562 -0.487101,-1.231641 -1.194575,-2.327928 -2.076172,-3.291016 0.148169,-0.348193 0.455718,-1.223101 0.539063,-2.484375 0.04167,-0.630637 0.02651,-1.357245 -0.0918,-2.164062 -0.118303,-0.806818 -0.340722,-1.694307 -0.714844,-2.642579 0,0 -0.577155,-0.1809664 -1.8125,0.08203 -0.617673,0.131498 -1.399095,0.37464 -2.355469,0.80664 -0.956374,0.432001 -2.087359,1.052402 -3.402344,1.941407 -2.207692,-0.622302 -4.563254,-0.918774 -6.904296,-0.933594 -2.341044,0.01482 -4.697751,0.32611 -6.890625,0.933594 C 23.142877,10.80997 22.011893,10.188108 21.055519,9.755413 20.099145,9.322718 19.317723,9.079345 18.70005,8.948772 c -1.235345,-0.2611454 -1.8125,-0.07617 -1.8125,-0.07617 -0.374122,0.948272 -0.595746,1.835761 -0.71289,2.642579 -0.117145,0.806817 -0.130489,1.533425 -0.08789,2.164062 0.0852,1.261274 0.392444,2.136182 0.533203,2.484375 -0.881595,0.963088 -1.59318,2.059375 -2.083984,3.291016 -0.490805,1.231641 -0.761719,2.597664 -0.761719,4.101562 0,1.320542 0.101278,2.513026 0.289062,3.589844 0.187785,1.076818 0.463265,2.037808 0.8125,2.896484 0.349235,0.858676 0.771509,1.615134 1.25586,2.28125 0.484351,0.666117 1.029914,1.243049 1.623047,1.742188 1.186264,0.998277 2.56396,1.688016 4.027343,2.171875 1.463384,0.483859 3.013142,0.76145 4.542969,0.935547 -0.392643,0.348194 -0.766772,0.826411 -1.074219,1.439453 -0.307446,0.613042 -0.547887,1.360996 -0.673828,2.25 -0.392643,0.177801 -0.93736,0.386989 -1.570312,0.535156 -0.632953,0.148167 -1.355371,0.234644 -2.105469,0.167969 -0.750098,-0.06668 -1.527406,-0.287179 -2.271484,-0.753907 -0.744079,-0.466727 -1.453466,-1.17848 -2.06836,-2.230468 0,0 -0.362915,-0.664437 -1.072265,-1.351563 -0.354676,-0.343563 -0.796504,-0.69302 -1.322266,-0.96875 -0.525762,-0.27573 -1.135443,-0.477236 -1.828125,-0.52539 0,0 -0.675951,-0.0083 -1.037109,0.197265 -0.180579,0.102791 -0.282912,0.259258 -0.183594,0.496094 0.09932,0.236836 0.401337,0.554488 1.027344,0.980469 0,0 0.451107,0.210974 1.058593,0.820312 0.607487,0.609339 1.371838,1.618139 1.994141,3.210938 0,0 0.09943,0.307177 0.369141,0.742187 0.26971,0.43501 0.70988,0.997562 1.388672,1.507813 0.678791,0.510251 1.596976,0.967636 2.824218,1.193359 0.613621,0.112862 1.303213,0.168305 2.080078,0.142578 0.776866,-0.02573 1.640125,-0.13251 2.597657,-0.341797 v 5.140625 c 0,0.153984 -0.123314,0.282492 -0.167969,0.435547 z"
     id="path4558"
     inkscape:connector-curvature="0" />
</svg>
