<?xml version="1.0" encoding="UTF-8" standalone="no"?>
<!-- Generator: Adobe Illustrator 18.0.0, SVG Export Plug-In . SVG Version: 6.00 Build 0)  -->

<svg
   xmlns:dc="http://purl.org/dc/elements/1.1/"
   xmlns:cc="http://creativecommons.org/ns#"
   xmlns:rdf="http://www.w3.org/1999/02/22-rdf-syntax-ns#"
   xmlns:svg="http://www.w3.org/2000/svg"
   xmlns="http://www.w3.org/2000/svg"
   xmlns:sodipodi="http://sodipodi.sourceforge.net/DTD/sodipodi-0.dtd"
   xmlns:inkscape="http://www.inkscape.org/namespaces/inkscape"
   version="1.1"
   id="Capa_1"
   x="0px"
   y="0px"
   viewBox="0 0 59.999999 59.999999"
   xml:space="preserve"
   sodipodi:docname="mail.svg"
   width="60"
   height="60"
   inkscape:version="0.92.1 r15371"><metadata
   id="metadata43"><rdf:RDF><cc:Work
       rdf:about=""><dc:format>image/svg+xml</dc:format><dc:type
         rdf:resource="http://purl.org/dc/dcmitype/StillImage" /><dc:title></dc:title></cc:Work></rdf:RDF></metadata><defs
   id="defs41" /><sodipodi:namedview
   pagecolor="#ffffff"
   bordercolor="#666666"
   borderopacity="1"
   objecttolerance="10"
   gridtolerance="10"
   guidetolerance="10"
   inkscape:pageopacity="0"
   inkscape:pageshadow="2"
   inkscape:window-width="1280"
   inkscape:window-height="657"
   id="namedview39"
   showgrid="false"
   inkscape:zoom="0.9790053"
   inkscape:cx="-31.664793"
   inkscape:cy="120.5305"
   inkscape:window-x="-8"
   inkscape:window-y="-8"
   inkscape:window-maximized="1"
   inkscape:current-layer="Capa_1" />
<g
   id="g6"
   transform="matrix(0.22366347,0,0,0.22366347,3.0417301,3.041842)"
   style="fill:#ffffff">
	<path
   d="m 198.602,70.402 -78.063,68.789 -78.08,-68.79 c -3.109,-2.739 -7.848,-2.438 -10.586,0.669 -2.737,3.108 -2.439,7.847 0.67,10.586 l 83.039,73.159 c 1.417,1.248 3.188,1.872 4.958,1.872 1.77,0 3.542,-0.624 4.959,-1.873 l 83.022,-73.159 c 3.107,-2.738 3.406,-7.478 0.668,-10.586 -2.74,-3.105 -7.478,-3.405 -10.587,-0.667 z"
   id="path2"
   inkscape:connector-curvature="0"
   style="fill:#ffffff" />
	<path
   d="M 218.561,38.529 H 22.5 C 10.094,38.529 0,48.622 0,61.029 v 119.002 c 0,12.407 10.094,22.5 22.5,22.5 h 196.061 c 12.406,0 22.5,-10.093 22.5,-22.5 V 61.029 c 0,-12.406 -10.094,-22.5 -22.5,-22.5 z m 7.5,141.502 c 0,4.135 -3.364,7.5 -7.5,7.5 H 22.5 c -4.136,0 -7.5,-3.365 -7.5,-7.5 V 61.029 c 0,-4.135 3.364,-7.5 7.5,-7.5 h 196.061 c 4.136,0 7.5,3.365 7.5,7.5 z"
   id="path4"
   inkscape:connector-curvature="0"
   style="fill:#ffffff" />
</g>
<g
   id="g8"
   transform="translate(0,-181.061)">
</g>
<g
   id="g10"
   transform="translate(0,-181.061)">
</g>
<g
   id="g12"
   transform="translate(0,-181.061)">
</g>
<g
   id="g14"
   transform="translate(0,-181.061)">
</g>
<g
   id="g16"
   transform="translate(0,-181.061)">
</g>
<g
   id="g18"
   transform="translate(0,-181.061)">
</g>
<g
   id="g20"
   transform="translate(0,-181.061)">
</g>
<g
   id="g22"
   transform="translate(0,-181.061)">
</g>
<g
   id="g24"
   transform="translate(0,-181.061)">
</g>
<g
   id="g26"
   transform="translate(0,-181.061)">
</g>
<g
   id="g28"
   transform="translate(0,-181.061)">
</g>
<g
   id="g30"
   transform="translate(0,-181.061)">
</g>
<g
   id="g32"
   transform="translate(0,-181.061)">
</g>
<g
   id="g34"
   transform="translate(0,-181.061)">
</g>
<g
   id="g36"
   transform="translate(0,-181.061)">
</g>
</svg>